<svg width="28" height="28" viewBox="0 0 28 28" fill="none" xmlns="http://www.w3.org/2000/svg">
<circle cx="14" cy="14" r="14" fill="#EEFFE6"/>
<path d="M18.4466 7.33337H17.18C15.7266 7.33337 14.96 8.10004 14.96 9.55337V10.82C14.96 12.2734 15.7266 13.04 17.18 13.04H18.4466C19.9 13.04 20.6666 12.2734 20.6666 10.82V9.55337C20.6666 8.10004 19.9 7.33337 18.4466 7.33337Z" fill="#A8FF80"/>
<path d="M10.8268 14.9534H9.56016C8.10016 14.9534 7.3335 15.72 7.3335 17.1734V18.44C7.3335 19.9 8.10016 20.6667 9.5535 20.6667H10.8202C12.2735 20.6667 13.0402 19.9 13.0402 18.4467V17.18C13.0468 15.72 12.2802 14.9534 10.8268 14.9534Z" fill="#A8FF80"/>
<path d="M10.1935 13.0534C11.773 13.0534 13.0535 11.7729 13.0535 10.1934C13.0535 8.61384 11.773 7.33337 10.1935 7.33337C8.61396 7.33337 7.3335 8.61384 7.3335 10.1934C7.3335 11.7729 8.61396 13.0534 10.1935 13.0534Z" fill="#A8FF80"/>
<path d="M17.8068 20.6667C19.3863 20.6667 20.6668 19.3862 20.6668 17.8067C20.6668 16.2271 19.3863 14.9467 17.8068 14.9467C16.2272 14.9467 14.9468 16.2271 14.9468 17.8067C14.9468 19.3862 16.2272 20.6667 17.8068 20.6667Z" fill="#A8FF80"/>
</svg>
