<svg width="48" height="48" viewBox="0 0 48 48" fill="none" xmlns="http://www.w3.org/2000/svg">
<circle cx="24" cy="24" r="24" fill="#E7943A"/>
<path d="M28.19 14H19.81C16.17 14 14 16.17 14 19.81V28.18C14 31.83 16.17 34 19.81 34H28.18C31.82 34 33.99 31.83 33.99 28.19V19.81C34 16.17 31.83 14 28.19 14ZM19.75 21.14C19.75 20.33 20.41 19.66 21.23 19.66C22.04 19.66 22.71 20.32 22.71 21.14C22.71 21.95 22.05 22.62 21.23 22.62C20.41 22.61 19.75 21.95 19.75 21.14ZM20.82 28.02C20.63 28.02 20.44 27.95 20.29 27.8C20 27.51 20 27.04 20.29 26.74L26.84 20.19C27.13 19.9 27.61 19.9 27.9 20.19C28.19 20.48 28.19 20.96 27.9 21.25L21.35 27.8C21.2 27.95 21.01 28.02 20.82 28.02ZM27.77 28.34C26.96 28.34 26.29 27.68 26.29 26.86C26.29 26.05 26.95 25.38 27.77 25.38C28.58 25.38 29.25 26.04 29.25 26.86C29.25 27.68 28.59 28.34 27.77 28.34Z" fill="white"/>
</svg>
